<svg id="Layer_1" data-name="Layer 1" xmlns="http://www.w3.org/2000/svg" viewBox="0 0 252.3 82.53"><defs><style>.cls-1{fill:#a6a8ab;}</style></defs><rect class="cls-1" width="252.3" height="82.53" rx="11.15"/><path d="M68.64,58.29A40.56,40.56,0,0,1,65,65.19c-2.4,3.65-5.78,8.2-10,8.24-3.73,0-4.68-2.43-9.74-2.4s-6.11,2.44-9.83,2.41c-4.19,0-7.4-4.15-9.8-7.8C18.9,55.42,18.2,43.43,22.34,37.06c2.94-4.53,7.58-7.18,11.94-7.18s7.24,2.44,10.91,2.44,5.73-2.44,10.87-2.44A14.47,14.47,0,0,1,67,35.65C57.38,40.91,58.94,54.62,68.64,58.29Z" transform="translate(-2.85 -3.73)"/><path d="M52.16,25.8a12.48,12.48,0,0,0,2.77-9.24,13.44,13.44,0,0,0-8.69,4.68c-1.89,2.3-3.45,5.7-2.85,9A11.4,11.4,0,0,0,52.16,25.8Z" transform="translate(-2.85 -3.73)"/><path d="M89.08,36.91,79.47,65.2h4.4l2.87-8.69h9.31l3,8.69h4.52L93.87,36.91Zm2.28,4.65c.33,1.26.68,2.57,1.13,4l2.59,7.5H87.71l2.55-7.55C90.65,44.28,91,43,91.36,41.56Z" transform="translate(-2.85 -3.73)"/><path d="M116,44.24a8,8,0,0,0-6.8,3.27L109,44.69h-3.92l0,.36c.12,1.76.17,3.69.17,6.46v21.8h4.28V63.14a7.51,7.51,0,0,0,5.85,2.51,8.83,8.83,0,0,0,6.49-2.76,11.71,11.71,0,0,0,2.86-8.23,11.38,11.38,0,0,0-2.49-7.52A8.13,8.13,0,0,0,116,44.24Zm-1.06,3.55c3.81,0,5.52,3.53,5.52,7,0,4.52-2.18,7.33-5.69,7.33a5.19,5.19,0,0,1-5-4,5.52,5.52,0,0,1-.15-1.39V53.35a7.27,7.27,0,0,1,.13-1.06c0-.12,0-.23.07-.35A5.4,5.4,0,0,1,114.9,47.79Z" transform="translate(-2.85 -3.73)"/><path d="M138,44.24a8,8,0,0,0-6.8,3.27L131,44.69h-3.92l0,.36c.11,1.76.16,3.69.16,6.46v21.8h4.28V63.14a7.51,7.51,0,0,0,5.85,2.51,8.83,8.83,0,0,0,6.49-2.76,11.71,11.71,0,0,0,2.86-8.23,11.43,11.43,0,0,0-2.48-7.52A8.16,8.16,0,0,0,138,44.24Zm-1.06,3.55c3.81,0,5.52,3.53,5.52,7,0,4.52-2.18,7.33-5.68,7.33a5.2,5.2,0,0,1-5.05-4,5.52,5.52,0,0,1-.15-1.39V53.35a5.94,5.94,0,0,1,.14-1.06l.06-.35A5.42,5.42,0,0,1,136.94,47.79Z" transform="translate(-2.85 -3.73)"/><path d="M165.62,48.9c-4-1.55-5.27-2.77-5.27-5,0-1.89,1.5-3.8,4.86-3.8a9.85,9.85,0,0,1,5,1.26l.36.23L171.81,38l-.24-.13a12.31,12.31,0,0,0-6.24-1.4c-5.46,0-9.27,3.22-9.27,7.83,0,3.72,2.39,6.32,7.52,8.19,3.63,1.35,5,2.75,5,5.13,0,2.7-2.09,4.37-5.44,4.37A11.65,11.65,0,0,1,157,60.23l-.37-.23-1.15,3.65.21.14a14.66,14.66,0,0,0,7.23,1.86c7.36,0,10-4.49,10-8.33S170.75,50.92,165.62,48.9Z" transform="translate(-2.85 -3.73)"/><path d="M180.55,39.82l-4.2,1.32v3.55h-3.08v3.42h3.08V58.59c0,2.54.48,4.31,1.48,5.43A5.49,5.49,0,0,0,182,65.65a10.11,10.11,0,0,0,3.31-.51l.24-.09-.2-3.42-.42.12a6.3,6.3,0,0,1-2,.23c-1.66,0-2.36-1-2.36-3.51V48.11h5.16V44.69h-5.16Z" transform="translate(-2.85 -3.73)"/><path d="M196.32,44.24c-6,0-10.17,4.47-10.17,10.87,0,6.21,4,10.54,9.84,10.54h0c4.9,0,10.17-3.41,10.17-10.91a10.8,10.8,0,0,0-2.73-7.57A9.53,9.53,0,0,0,196.32,44.24Zm-.13,3.38c3.86,0,5.61,3.76,5.61,7.25,0,4.29-2.39,7.4-5.69,7.4h0c-3.24,0-5.6-3.06-5.6-7.28C190.47,51.32,192.24,47.62,196.19,47.62Z" transform="translate(-2.85 -3.73)"/><path d="M219.31,44.44l-.25-.06a3.93,3.93,0,0,0-1.07-.14,6.08,6.08,0,0,0-5.36,3.45l-.13-3h-3.84l0,.36c.12,1.7.16,3.6.16,6.17l0,14h4.29V54.29a12.28,12.28,0,0,1,.11-1.66c.49-2.62,2.25-4.31,4.51-4.31a10,10,0,0,1,1.15.07l.45,0Z" transform="translate(-2.85 -3.73)"/><path d="M228.94,44.2c-5.7,0-9.68,4.55-9.68,11.07,0,6.28,4,10.34,10.09,10.34a16.52,16.52,0,0,0,6.78-1.3l.25-.12L235.56,61l-.36.15a13.28,13.28,0,0,1-5.36,1c-1.86,0-6.15-.62-6.41-6.21l13.82,0,.05-.27a9.3,9.3,0,0,0,.13-1.79C237.43,49.42,235.21,44.2,228.94,44.2Zm-.29,3.26a4.23,4.23,0,0,1,3.15,1.2,6.1,6.1,0,0,1,1.47,4h-9.76C223.9,50.17,225.45,47.46,228.65,47.46Z" transform="translate(-2.85 -3.73)"/><path d="M79.47,17.58a31,31,0,0,1,4.11-.28c2.76,0,4.72.56,6,1.65a5.85,5.85,0,0,1,2.12,4.83A6.76,6.76,0,0,1,89.58,29c-1.41,1.26-3.71,1.93-6.6,1.93a29.72,29.72,0,0,1-3.51-.16Zm1.94,11.86a13.9,13.9,0,0,0,2,.08c4.1,0,6.33-2.07,6.33-5.68,0-3.2-2-5.17-6-5.17a12.08,12.08,0,0,0-2.26.18Z" transform="translate(-2.85 -3.73)"/><path d="M98.61,31a4.83,4.83,0,0,1-5.12-5,5,5,0,0,1,5.3-5.1,4.79,4.79,0,0,1,5.14,4.92c0,3.58-2.76,5.13-5.3,5.13Zm.07-1.31c1.85,0,3.24-1.57,3.24-3.76,0-1.63-.9-3.67-3.2-3.67S95.45,24.18,95.45,26c0,2.11,1.33,3.7,3.2,3.7Z" transform="translate(-2.85 -3.73)"/><path d="M107,21.18,108.44,26c.28,1.08.57,2.09.77,3.08h.07c.24-1,.59-2,1-3.06L112,21.18h1.63l1.66,4.8c.4,1.14.71,2.17.95,3.14h.06a28.58,28.58,0,0,1,.82-3.12l1.52-4.82h1.93l-3.45,9.61h-1.76l-1.64-4.59c-.37-1.09-.68-2-1-3.18h0a28,28,0,0,1-1,3.2L110,30.79h-1.76L105,21.18Z" transform="translate(-2.85 -3.73)"/><path d="M122.48,23.78c0-1,0-1.81-.09-2.6h1.72l.11,1.57h0A4,4,0,0,1,127.8,21c1.48,0,3.77.79,3.77,4.09v5.74h-1.94V25.25c0-1.55-.64-2.86-2.47-2.86a2.78,2.78,0,0,0-2.61,1.79,2.5,2.5,0,0,0-.13.81v5.8h-1.94Z" transform="translate(-2.85 -3.73)"/><path d="M134.73,16.69h1.94v14.1h-1.94Z" transform="translate(-2.85 -3.73)"/><path d="M144.25,31a4.83,4.83,0,0,1-5.12-5,5,5,0,0,1,5.29-5.1,4.79,4.79,0,0,1,5.15,4.92c0,3.58-2.76,5.13-5.3,5.13Zm.06-1.31c1.86,0,3.25-1.57,3.25-3.76,0-1.63-.91-3.67-3.2-3.67s-3.27,1.91-3.27,3.73c0,2.11,1.32,3.7,3.2,3.7Z" transform="translate(-2.85 -3.73)"/><path d="M159.55,28.49a14.55,14.55,0,0,0,.15,2.3H158l-.18-1.21h-.07A4.07,4.07,0,0,1,154.45,31c-2.17,0-3.27-1.37-3.27-2.76,0-2.33,2.29-3.6,6.42-3.58v-.2c0-.79-.24-2.24-2.43-2.22a5.65,5.65,0,0,0-2.8.71l-.44-1.17a7.57,7.57,0,0,1,3.53-.83c3.29,0,4.09,2,4.09,3.93Zm-1.9-2.61c-2.12,0-4.53.3-4.53,2.17a1.63,1.63,0,0,0,1.81,1.67,2.71,2.71,0,0,0,2.63-1.61,1.56,1.56,0,0,0,.09-.56Z" transform="translate(-2.85 -3.73)"/><path d="M171.89,16.69V28.31c0,.85,0,1.83.08,2.48h-1.74l-.09-1.67h0A4,4,0,0,1,166.48,31a4.59,4.59,0,0,1-4.59-4.89A4.78,4.78,0,0,1,166.68,21a3.66,3.66,0,0,1,3.22,1.45h0V16.69Zm-1.95,8.4a3.13,3.13,0,0,0-.08-.75,2.81,2.81,0,0,0-2.81-2c-2,0-3.2,1.59-3.2,3.69s1.08,3.58,3.16,3.58a2.76,2.76,0,0,0,2.93-2.84Z" transform="translate(-2.85 -3.73)"/><path d="M184.14,31a4.83,4.83,0,0,1-5.12-5,5,5,0,0,1,5.3-5.1,4.78,4.78,0,0,1,5.14,4.92c0,3.58-2.76,5.13-5.3,5.13Zm.07-1.31c1.85,0,3.24-1.57,3.24-3.76,0-1.63-.9-3.67-3.2-3.67S181,24.18,181,26c0,2.11,1.33,3.7,3.2,3.7Z" transform="translate(-2.85 -3.73)"/><path d="M191.91,23.78c0-1,0-1.81-.09-2.6h1.72l.12,1.57h0A4,4,0,0,1,197.23,21c1.48,0,3.78.79,3.78,4.09v5.74h-1.95V25.25c0-1.55-.64-2.86-2.47-2.86a2.75,2.75,0,0,0-2.6,1.79,2.25,2.25,0,0,0-.14.81v5.8h-1.94Z" transform="translate(-2.85 -3.73)"/><path d="M211.18,18.87v2.31H214v1.33h-2.78v5.18c0,1.19.38,1.87,1.46,1.87a4,4,0,0,0,1.13-.12l.09,1.33a5.89,5.89,0,0,1-1.73.24,3,3,0,0,1-2.09-.73,3.52,3.52,0,0,1-.75-2.53V22.51h-1.66V21.18h1.66V19.41Z" transform="translate(-2.85 -3.73)"/><path d="M216.15,16.69h1.94v6h0a3.3,3.3,0,0,1,1.39-1.24,4.19,4.19,0,0,1,2-.49c1.43,0,3.73.79,3.73,4.11v5.72H223.3V25.27c0-1.57-.64-2.86-2.47-2.86a2.77,2.77,0,0,0-2.6,1.75,1.88,1.88,0,0,0-.14.83v5.8h-1.94Z" transform="translate(-2.85 -3.73)"/><path d="M229.51,26.28c0,2.37,1.7,3.34,3.64,3.34a8.07,8.07,0,0,0,3-.48l.35,1.23a9.43,9.43,0,0,1-3.57.62c-3.27,0-5.26-2-5.26-4.85a4.89,4.89,0,0,1,5-5.2c3.49,0,4.4,2.76,4.4,4.53a3.6,3.6,0,0,1-.07.83ZM235.18,25a2.58,2.58,0,0,0-2.67-2.84,3,3,0,0,0-3,2.84Z" transform="translate(-2.85 -3.73)"/></svg>