<svg id="Layer_1" data-name="Layer 1" xmlns="http://www.w3.org/2000/svg" viewBox="0 0 252.3 82.53"><defs><style>.cls-1{fill:#a6a8ab;}.cls-2{fill:#231f20;}</style></defs><rect class="cls-1" width="252.3" height="82.53" rx="11.15"/><path class="cls-2" d="M199.2,58.28a7.06,7.06,0,0,1-2.9-.59,5.45,5.45,0,0,1-2.2-1.8h-.18a21.59,21.59,0,0,1,.18,2.7v6.69h-2.46V41.73h2L194,44h.12A5.74,5.74,0,0,1,196.31,42a6.81,6.81,0,0,1,2.89-.59,6,6,0,0,1,5,2.21,9.67,9.67,0,0,1,1.76,6.2,9.68,9.68,0,0,1-1.78,6.22A6,6,0,0,1,199.2,58.28Zm-.35-14.76a4.39,4.39,0,0,0-3.61,1.38,7.11,7.11,0,0,0-1.14,4.39v.55c0,2.28.38,3.92,1.14,4.9a4.38,4.38,0,0,0,3.67,1.48,3.82,3.82,0,0,0,3.3-1.71,8.13,8.13,0,0,0,1.19-4.7,7.8,7.8,0,0,0-1.19-4.66A3.92,3.92,0,0,0,198.85,43.52Z" transform="translate(-2.85 -3.73)"/><path class="cls-2" d="M211.65,58h-2.46V34.9h2.46Z" transform="translate(-2.85 -3.73)"/><path class="cls-2" d="M225.8,58l-.49-2.31h-.11a6.79,6.79,0,0,1-2.43,2.07,7.39,7.39,0,0,1-3,.54A5.45,5.45,0,0,1,216,57a4.55,4.55,0,0,1-1.37-3.54c0-3.28,2.63-5,7.88-5.16l2.76-.09v-1a4.12,4.12,0,0,0-.83-2.83,3.4,3.4,0,0,0-2.63-.91,10.77,10.77,0,0,0-4.6,1.25l-.75-1.89a11.79,11.79,0,0,1,2.63-1,11.25,11.25,0,0,1,2.87-.37,6.2,6.2,0,0,1,4.31,1.29,5.4,5.4,0,0,1,1.4,4.14V58Zm-5.56-1.73A5,5,0,0,0,223.85,55a4.66,4.66,0,0,0,1.32-3.54V50l-2.47.1a9,9,0,0,0-4.23.91,2.77,2.77,0,0,0-1.3,2.52,2.54,2.54,0,0,0,.81,2A3.38,3.38,0,0,0,220.24,56.25Z" transform="translate(-2.85 -3.73)"/><path class="cls-2" d="M229.06,41.73h2.64L235.26,51a35.29,35.29,0,0,1,1.45,4.58h.12c.13-.51.4-1.37.81-2.59s1.75-5,4-11.26h2.64l-7,18.5a9.21,9.21,0,0,1-2.43,3.9,5.18,5.18,0,0,1-3.4,1.15,10.51,10.51,0,0,1-2.23-.25v-2a8.6,8.6,0,0,0,1.83.18q2.53,0,3.62-2.85l.9-2.31Z" transform="translate(-2.85 -3.73)"/><path class="cls-2" d="M153.6,43.24A5.71,5.71,0,0,1,156,47.83c0,2.51-1.43,3.7-2.85,4.82a2.37,2.37,0,0,0-1,1.67,1.84,1.84,0,0,0,.89,1.46l1.22.95c1.5,1.26,2.86,2.42,2.86,4.76,0,3.2-3.1,6.43-8.94,6.43-4.93,0-7.31-2.35-7.31-4.86a4.89,4.89,0,0,1,2.62-4.15c2.1-1.29,5-1.46,6.49-1.57A3.53,3.53,0,0,1,149,55a3.06,3.06,0,0,1,.34-1.32c-.38,0-.75.07-1.09.07a5.38,5.38,0,0,1-5.64-5.34,6.11,6.11,0,0,1,2.17-4.56A9.32,9.32,0,0,1,150.88,42h7l-2.17,1.23Zm-2.41,15.09a6.44,6.44,0,0,0-.79,0,13.86,13.86,0,0,0-3.57.54c-.74.27-2.92,1.09-2.92,3.5s2.35,4.15,6,4.15c3.27,0,5-1.56,5-3.67C154.89,61.08,153.77,60.17,151.19,58.33Zm1-6.46a3.44,3.44,0,0,0,.85-2.48c0-2.45-1.46-6.26-4.28-6.26a3.17,3.17,0,0,0-2.38,1.13,3.9,3.9,0,0,0-.75,2.51c0,2.28,1.32,6,4.25,6A3.43,3.43,0,0,0,152.17,51.87Z" transform="translate(-2.85 -3.73)"/><path class="cls-2" d="M132.2,57.79a8,8,0,0,1-8.28-8c0-4.45,3.63-8.25,8.79-8.25a7.94,7.94,0,0,1,8.11,8A8.3,8.3,0,0,1,132.2,57.79ZM136.44,55a6.18,6.18,0,0,0,1-3.77c0-3-1.43-8.69-5.64-8.69a4.68,4.68,0,0,0-3,1.16,5.14,5.14,0,0,0-1.56,4.14c0,3.36,1.66,8.89,5.77,8.89A4.36,4.36,0,0,0,136.44,55Z" transform="translate(-2.85 -3.73)"/><path class="cls-2" d="M113.8,57.79a8,8,0,0,1-8.28-8c0-4.45,3.63-8.25,8.79-8.25a7.93,7.93,0,0,1,8.11,8A8.3,8.3,0,0,1,113.8,57.79ZM118,55a6.11,6.11,0,0,0,1-3.77c0-3-1.43-8.69-5.63-8.69a4.73,4.73,0,0,0-3.06,1.16,5.14,5.14,0,0,0-1.56,4.14c0,3.36,1.66,8.89,5.77,8.89A4.34,4.34,0,0,0,118,55Z" transform="translate(-2.85 -3.73)"/><path class="cls-2" d="M102.92,57.26,98,58.38a35.86,35.86,0,0,1-5.63.58c-9.42,0-13-6.93-13-12.35,0-6.62,5.09-12.76,13.79-12.76a19.83,19.83,0,0,1,5.22.71,13.35,13.35,0,0,1,4.5,2.12l-2.83,2.7-1.19.27.85-1.37a9.78,9.78,0,0,0-7.3-3.2c-5.39,0-9.46,4.09-9.46,10.06,0,6.42,4.65,12.46,12.08,12.46a10.19,10.19,0,0,0,4.34-.86V51.25l-5.15.27L97,50.05h7.23l-.89.86a.78.78,0,0,0-.34.54c0,.31-.07,1.3-.07,1.64Z" transform="translate(-2.85 -3.73)"/><path class="cls-2" d="M164.39,56.27c-1.13-.1-1.37-.3-1.37-1.64V35.32c0-.07,0-.15,0-.22.14-1.19.48-1.4,1.54-2H159.7l-2.56,1.23h2.6V55.39c0,.68-.13.78-.92,1.8h6l1.27-.75C165.55,56.37,165,56.34,164.39,56.27Z" transform="translate(-2.85 -3.73)"/><path class="cls-2" d="M178.27,56.59c-.37.2-.74.44-1.11.61a7.93,7.93,0,0,1-3.3.64,7.24,7.24,0,0,1-4.5-1.32,8.77,8.77,0,0,1-3.46-7.15,7.68,7.68,0,0,1,7.76-7.83,6.67,6.67,0,0,1,3.5,1,5.58,5.58,0,0,1,2.36,3.35l-8,3.22-2.61.21c.85,4.3,3.76,6.81,7,6.81a8.71,8.71,0,0,0,4.14-1.19Zm-3.18-10.1c.64-.24,1-.44,1-.92a3.37,3.37,0,0,0-3.36-2.91c-1.35,0-3.89,1.05-3.89,4.71,0,.57.06,1.18.1,1.8Z" transform="translate(-2.85 -3.73)"/><path class="cls-2" d="M181.54,41.77V44h-.27V41.77h-.74v-.23h1.75v.23Z" transform="translate(-2.85 -3.73)"/><path class="cls-2" d="M184.59,44V41.75h0L183.89,44h-.21l-.7-2.26h0V44h-.24V41.54h.42l.63,2h0l.62-2h.42V44Z" transform="translate(-2.85 -3.73)"/><path class="cls-2" d="M86.19,27.2h-1.7a11.36,11.36,0,0,0-.48-2H81.56a10.11,10.11,0,0,0-.49,2h-1.6a35.08,35.08,0,0,1,1.24-3.39A27.27,27.27,0,0,0,82,20.3h2a28.3,28.3,0,0,0,1.12,3.46A29.38,29.38,0,0,1,86.19,27.2Zm-2.45-3a29.51,29.51,0,0,1-.9-3h-.09a30.29,30.29,0,0,1-.94,3Z" transform="translate(-2.85 -3.73)"/><path class="cls-2" d="M93,27.2H91.71a12.78,12.78,0,0,0-1.45-2.29,12.49,12.49,0,0,1-1.74-3h-.09a18.6,18.6,0,0,1,.14,2.1c0,.87,0,1.94.07,3.19h-1.3c0-1.09.08-2.3.08-3.61s0-2.38-.08-3.29h1.57a9.9,9.9,0,0,0,1.31,2.24,13.15,13.15,0,0,1,1.6,2.83h.08a18.88,18.88,0,0,1-.13-2.12c0-1,0-1.94-.07-2.95H93c0,.88-.07,2-.07,3.29S93,26.12,93,27.2Z" transform="translate(-2.85 -3.73)"/><path class="cls-2" d="M100.7,23.51a3.91,3.91,0,0,1-1,2.63A3.37,3.37,0,0,1,97,27.27c-.53,0-1.25,0-2.17-.07,0-1.06.07-2.27.07-3.61s0-2.38-.07-3.29h1.61l.59,0a3.55,3.55,0,0,1,2.77,1A3.24,3.24,0,0,1,100.7,23.51Zm-1.44.23a2.51,2.51,0,0,0-.6-1.71,2.22,2.22,0,0,0-1.81-.7,6,6,0,0,0-.62.05c0,.71,0,1.44,0,2.21s0,1.69,0,2.52a4,4,0,0,0,.69.06,2,2,0,0,0,1.69-.7A2.77,2.77,0,0,0,99.26,23.74Z" transform="translate(-2.85 -3.73)"/><path class="cls-2" d="M107.78,27.2h-1.56a10.11,10.11,0,0,0-1-2.31,1.22,1.22,0,0,0-1.06-.44h-.58c0,.91,0,1.83,0,2.75H102.2c0-1.06.07-2.27.07-3.61s0-2.38-.07-3.29h1.58l.94,0c1.62,0,2.43.56,2.43,1.67a1.86,1.86,0,0,1-1.39,1.83v.08a1.66,1.66,0,0,1,.94.84A17.64,17.64,0,0,1,107.78,27.2Zm-2-4.87c0-.71-.45-1.06-1.36-1.06a4.63,4.63,0,0,0-.88.08c0,.54.06,1.26.06,2.14h.49C105.24,23.5,105.8,23.11,105.8,22.33Z" transform="translate(-2.85 -3.73)"/><path class="cls-2" d="M115.38,23.63a3.77,3.77,0,0,1-1,2.69,3.19,3.19,0,0,1-2.46,1.07,3.1,3.1,0,0,1-2.34-1,3.47,3.47,0,0,1-.94-2.5,3.84,3.84,0,0,1,1-2.7,3.26,3.26,0,0,1,2.47-1.07,3.13,3.13,0,0,1,2.34,1A3.47,3.47,0,0,1,115.38,23.63Zm-1.46.15a2.73,2.73,0,0,0-.57-1.8,1.74,1.74,0,0,0-1.4-.69,1.63,1.63,0,0,0-1.31.7,3.12,3.12,0,0,0,0,3.55,1.74,1.74,0,0,0,1.39.69,1.61,1.61,0,0,0,1.32-.7A2.77,2.77,0,0,0,113.92,23.78Z" transform="translate(-2.85 -3.73)"/><path class="cls-2" d="M118.38,27.2h-1.5c0-1.09.07-2.3.07-3.61s0-2.38-.07-3.29h1.5c0,.89-.07,2-.07,3.29S118.33,26.13,118.38,27.2Z" transform="translate(-2.85 -3.73)"/><path class="cls-2" d="M126.06,23.51a3.87,3.87,0,0,1-1,2.63,3.36,3.36,0,0,1-2.7,1.13c-.52,0-1.24,0-2.16-.07,0-1.06.07-2.27.07-3.61s0-2.38-.07-3.29h1.6l.59,0a3.57,3.57,0,0,1,2.78,1A3.28,3.28,0,0,1,126.06,23.51Zm-1.45.23A2.56,2.56,0,0,0,124,22a2.25,2.25,0,0,0-1.82-.7,6,6,0,0,0-.62.05c0,.71,0,1.44,0,2.21s0,1.69.06,2.52a3.91,3.91,0,0,0,.68.06,2,2,0,0,0,1.69-.7A2.71,2.71,0,0,0,124.61,23.74Z" transform="translate(-2.85 -3.73)"/><path class="cls-2" d="M136.25,27.2h-1.7a11.36,11.36,0,0,0-.48-2h-2.45a10.48,10.48,0,0,0-.5,2h-1.59q0-.21,1.23-3.39A25.54,25.54,0,0,0,132,20.3h2a29.58,29.58,0,0,0,1.13,3.46A31.88,31.88,0,0,1,136.25,27.2Zm-2.45-3a28.25,28.25,0,0,1-.91-3h-.08c0,.14-.32,1.12-.94,3Z" transform="translate(-2.85 -3.73)"/><path class="cls-2" d="M142.43,22.11a2.08,2.08,0,0,1-.94,1.87,4.22,4.22,0,0,1-2.31.6h-.36c0,.67,0,1.54.06,2.63h-1.49c.05-1,.07-2.22.07-3.61s0-2.36-.07-3.29h1.68l1,0a3,3,0,0,1,1.7.46A1.52,1.52,0,0,1,142.43,22.11Zm-1.37.29c0-.75-.5-1.13-1.5-1.13a3.74,3.74,0,0,0-.8.08c0,.66.06,1.42.06,2.26l.31,0C140.42,23.63,141.06,23.22,141.06,22.4Z" transform="translate(-2.85 -3.73)"/><path class="cls-2" d="M148.78,22.11a2.06,2.06,0,0,1-.94,1.87,4.18,4.18,0,0,1-2.31.6h-.35c0,.67,0,1.54.06,2.63h-1.49c0-1,.07-2.22.07-3.61s0-2.36-.07-3.29h1.67l1,0a3,3,0,0,1,1.7.46A1.53,1.53,0,0,1,148.78,22.11Zm-1.36.29c0-.75-.51-1.13-1.51-1.13a3.65,3.65,0,0,0-.79.08c0,.66,0,1.42,0,2.26l.31,0C146.77,23.63,147.42,23.22,147.42,22.4Z" transform="translate(-2.85 -3.73)"/><path class="cls-2" d="M159.17,23.63a3.8,3.8,0,0,1-1,2.69,3.23,3.23,0,0,1-2.47,1.07,3.1,3.1,0,0,1-2.34-1,3.47,3.47,0,0,1-.94-2.5,3.84,3.84,0,0,1,1-2.7,3.26,3.26,0,0,1,2.47-1.07,3.13,3.13,0,0,1,2.34,1A3.47,3.47,0,0,1,159.17,23.63Zm-1.46.15a2.73,2.73,0,0,0-.57-1.8,1.72,1.72,0,0,0-1.39-.69,1.63,1.63,0,0,0-1.32.7,3.12,3.12,0,0,0,0,3.55,1.76,1.76,0,0,0,1.4.69,1.6,1.6,0,0,0,1.31-.7A2.77,2.77,0,0,0,157.71,23.78Z" transform="translate(-2.85 -3.73)"/><path class="cls-2" d="M166.36,27.2h-1.31a13.25,13.25,0,0,0-1.46-2.29,12.49,12.49,0,0,1-1.74-3h-.08a18.41,18.41,0,0,1,.13,2.1c0,.87,0,1.94.07,3.19h-1.3c.05-1.09.08-2.3.08-3.61s0-2.38-.08-3.29h1.57a9.9,9.9,0,0,0,1.31,2.24,12.7,12.7,0,0,1,1.6,2.83h.08c-.08-.79-.12-1.5-.12-2.12,0-1,0-1.94-.08-2.95h1.33c-.05.88-.08,2-.08,3.29S166.31,26.12,166.36,27.2Z" transform="translate(-2.85 -3.73)"/><path d="M66.76,42.82l-6.08-3.51-7.32,9,7.46,9.18,5.94-3.42c2.49-1.44,3.84-3.44,3.84-5.63s-1.35-4.19-3.84-5.62Zm0,0" transform="translate(-2.85 -3.73)"/><path d="M27.36,75.63,49.6,48.31l-22-27c-.07,0-.14,0-.2,0-3.39,0-5.66,2.75-5.66,6.85V68.81c0,4,2.25,6.78,5.59,6.82Zm0,0" transform="translate(-2.85 -3.73)"/><path d="M58.13,37.85l-25-14.46L51.48,46Zm0,0" transform="translate(-2.85 -3.73)"/><path d="M51.47,50.61,32.61,73.79,58.26,59Zm0,0" transform="translate(-2.85 -3.73)"/></svg>